<?xml version="1.0" encoding="UTF-8" standalone="no"?>
<svg
   xmlns:dc="http://purl.org/dc/elements/1.1/"
   xmlns:cc="http://creativecommons.org/ns#"
   xmlns:rdf="http://www.w3.org/1999/02/22-rdf-syntax-ns#"
   xmlns:svg="http://www.w3.org/2000/svg"
   xmlns="http://www.w3.org/2000/svg"
   viewBox="0 0 1000 1000"
   height="1000"
   width="1000"
   xml:space="preserve"
   id="svg2"
   version="1.1"><metadata
     id="metadata8"><rdf:RDF><cc:Work
         rdf:about=""><dc:format>image/svg+xml</dc:format><dc:type
           rdf:resource="http://purl.org/dc/dcmitype/StillImage" /></cc:Work></rdf:RDF></metadata><defs
     id="defs6"><clipPath
       id="clipPath18"
       clipPathUnits="userSpaceOnUse"><path
         id="path16"
         d="M 0,750 H 750 V 0 H 0 Z" /></clipPath><linearGradient
       id="linearGradient52"
       spreadMethod="pad"
       gradientTransform="matrix(359.42206,0,0,359.42206,15.577977,343.28665)"
       gradientUnits="userSpaceOnUse"
       y2="0"
       x2="1"
       y1="0"
       x1="0"><stop
         id="stop36"
         offset="0"
         style="stop-opacity:1;stop-color:#095ca2" /><stop
         id="stop38"
         offset="0.07"
         style="stop-opacity:1;stop-color:#0b61aa" /><stop
         id="stop40"
         offset="0.36"
         style="stop-opacity:1;stop-color:#2170b7" /><stop
         id="stop42"
         offset="0.52"
         style="stop-opacity:1;stop-color:#2974ba" /><stop
         id="stop44"
         offset="0.64"
         style="stop-opacity:1;stop-color:#2471b8" /><stop
         id="stop46"
         offset="0.81"
         style="stop-opacity:1;stop-color:#176ab3" /><stop
         id="stop48"
         offset="0.99"
         style="stop-opacity:1;stop-color:#095ca2" /><stop
         id="stop50"
         offset="1"
         style="stop-opacity:1;stop-color:#095ca2" /></linearGradient><clipPath
       id="clipPath62"
       clipPathUnits="userSpaceOnUse"><path
         id="path60"
         d="M 0,750 H 750 V 0 H 0 Z" /></clipPath></defs><g
     transform="matrix(1.3333333,0,0,-1.3333333,0,1000)"
     id="g10"><g
       id="g12"><g
         clip-path="url(#clipPath18)"
         id="g14"><g
           transform="translate(554.709,312.4209)"
           id="g20"><path
             id="path22"
             style="fill:#095ca2;fill-opacity:1;fill-rule:nonzero;stroke:none"
             d="m 0,0 v 165.333 c 0.048,3.269 -2.563,5.957 -5.833,6.004 -1.621,0.024 -3.181,-0.618 -4.315,-1.776 L -179.286,0.423 -355.189,-175.48 v -121.357 h 510.796 c 13.076,-0.235 23.867,10.173 24.102,23.249 0.005,0.284 0.005,0.568 0,0.853 v 438.068 c 0.048,3.269 -2.563,5.957 -5.833,6.004 -1.621,0.024 -3.181,-0.618 -4.315,-1.776 z" /></g></g></g><g
       id="g24"><g
         id="g26"><g
           id="g32"><g
             id="g34"><path
               id="path54"
               style="fill:url(#linearGradient52);stroke:none"
               d="m 195.291,604.184 c -99.369,0 -179.709,29.177 -179.709,66.809 v 0 V 431.24 39.686 C 15.346,26.61 25.755,15.819 38.831,15.584 v 0 c 0.284,-0.005 0.568,-0.005 0.853,0 v 0 H 375 v 655.409 c 0,-37.632 -80.34,-66.809 -179.709,-66.809" /></g></g></g></g><g
       id="g56"><g
         clip-path="url(#clipPath62)"
         id="g58"><g
           transform="translate(552.1719,207.1328)"
           id="g64"><path
             id="path66"
             style="fill:#ffffff;fill-opacity:1;fill-rule:nonzero;stroke:none"
             d="m 0,0 h 72.307 c 6.539,0 11.839,-5.301 11.839,-11.84 v -72.306 c 0,-6.54 -5.3,-11.84 -11.839,-11.84 H 0 c -6.539,0 -11.84,5.3 -11.84,11.84 V -11.84 C -11.84,-5.301 -6.539,0 0,0" /></g><g
           transform="translate(385.5713,207.1328)"
           id="g68"><path
             id="path70"
             style="fill:#ffffff;fill-opacity:1;fill-rule:nonzero;stroke:none"
             d="m 0,0 h 72.307 c 6.538,0 11.839,-5.301 11.839,-11.84 v -72.306 c 0,-6.54 -5.301,-11.84 -11.839,-11.84 H 0 c -6.539,0 -11.84,5.3 -11.84,11.84 V -11.84 C -11.84,-5.301 -6.539,0 0,0" /></g><g
           transform="translate(218.9702,207.1328)"
           id="g72"><path
             id="path74"
             style="fill:#ffffff;fill-opacity:1;fill-rule:nonzero;stroke:none"
             d="m 0,0 h 72.307 c 6.538,0 11.839,-5.301 11.839,-11.84 v -72.306 c 0,-6.54 -5.301,-11.84 -11.839,-11.84 H 0 c -6.539,0 -11.839,5.3 -11.839,11.84 V -11.84 C -11.839,-5.301 -6.539,0 0,0" /></g><g
           transform="translate(375,670.9932)"
           id="g76"><path
             id="path78"
             style="fill:#eaeaea;fill-opacity:1;fill-rule:nonzero;stroke:none"
             d="m 0,0 c 0,-35.941 -80.34,-65.118 -179.709,-65.118 -99.369,0 -179.709,27.485 -179.709,65.118 0,37.633 80.34,63.427 179.709,63.427 C -80.34,63.427 0,34.25 0,0" /></g><g
           transform="translate(332.7153,674.7988)"
           id="g80"><path
             id="path82"
             style="fill:#76cae7;fill-opacity:1;fill-rule:nonzero;stroke:none"
             d="m 0,0 c 0,-23.256 -61.735,-42.284 -137.847,-42.284 -76.112,0 -137.848,18.182 -137.848,42.284 0,24.103 64.273,41.016 138.271,41.016 C -63.427,41.016 0,22.834 0,0" /></g><g
           transform="translate(195.291,665.0737)"
           id="g84"><path
             id="path86"
             style="fill:#1c8ab4;fill-opacity:1;fill-rule:nonzero;stroke:none"
             d="M 0,0 C -36.972,0.73 -73.817,-4.554 -109.094,-15.646 -73.919,-27.214 -37.017,-32.649 0,-31.713 37.017,-32.649 73.919,-27.214 109.094,-15.646 73.817,-4.554 36.972,0.73 0,0" /></g></g></g></g></svg>