<?xml version="1.0" encoding="UTF-8" standalone="no"?>
<svg
   xmlns:dc="http://purl.org/dc/elements/1.1/"
   xmlns:cc="http://creativecommons.org/ns#"
   xmlns:rdf="http://www.w3.org/1999/02/22-rdf-syntax-ns#"
   xmlns:svg="http://www.w3.org/2000/svg"
   xmlns="http://www.w3.org/2000/svg"
   viewBox="0 0 1000 1000"
   height="1000"
   width="1000"
   xml:space="preserve"
   id="svg2"
   version="1.1"><metadata
     id="metadata8"><rdf:RDF><cc:Work
         rdf:about=""><dc:format>image/svg+xml</dc:format><dc:type
           rdf:resource="http://purl.org/dc/dcmitype/StillImage" /></cc:Work></rdf:RDF></metadata><defs
     id="defs6"><linearGradient
       id="linearGradient30"
       spreadMethod="pad"
       gradientTransform="matrix(0,709.17645,-709.17645,0,222.73148,21.738689)"
       gradientUnits="userSpaceOnUse"
       y2="0"
       x2="1"
       y1="0"
       x1="0"><stop
         id="stop24"
         offset="0"
         style="stop-opacity:1;stop-color:#949494" /><stop
         id="stop26"
         offset="0.53"
         style="stop-opacity:1;stop-color:#a2a2a1" /><stop
         id="stop28"
         offset="1"
         style="stop-opacity:1;stop-color:#b4b4b4" /></linearGradient><clipPath
       id="clipPath40"
       clipPathUnits="userSpaceOnUse"><path
         id="path38"
         d="M 0,750 H 750 V 0 H 0 Z" /></clipPath><linearGradient
       id="linearGradient82"
       spreadMethod="pad"
       gradientTransform="matrix(0,448.3226,-448.3226,0,419.11319,19.084856)"
       gradientUnits="userSpaceOnUse"
       y2="0"
       x2="1"
       y1="0"
       x1="0"><stop
         id="stop70"
         offset="0"
         style="stop-opacity:1;stop-color:#2974ba" /><stop
         id="stop72"
         offset="0.16"
         style="stop-opacity:1;stop-color:#2f7bbf" /><stop
         id="stop74"
         offset="0.16"
         style="stop-opacity:1;stop-color:#2f7bbf" /><stop
         id="stop76"
         offset="0.53"
         style="stop-opacity:1;stop-color:#4b8ccb" /><stop
         id="stop78"
         offset="0.82"
         style="stop-opacity:1;stop-color:#5f98d2" /><stop
         id="stop80"
         offset="1"
         style="stop-opacity:1;stop-color:#679cd3" /></linearGradient><clipPath
       id="clipPath92"
       clipPathUnits="userSpaceOnUse"><path
         id="path90"
         d="M 0,750 H 750 V 0 H 0 Z" /></clipPath></defs><g
     transform="matrix(1.3333333,0,0,-1.3333333,0,1000)"
     id="g10"><g
       id="g12"><g
         id="g14"><g
           id="g20"><g
             id="g22"><path
               id="path32"
               style="fill:url(#linearGradient30);stroke:none"
               d="M 37.798,730.911 C 24.682,730.675 14.242,719.851 14.477,706.735 v 0 -660.82 c 0,-13.352 10.825,-24.176 24.177,-24.176 v 0 h 368.159 c 13.257,0.226 23.949,10.919 24.176,24.176 v 0 660.82 c 0,13.352 -10.824,24.176 -24.176,24.176 v 0 H 38.654 c -0.143,0.002 -0.285,0.004 -0.428,0.004 v 0 c -0.143,0 -0.285,-0.002 -0.428,-0.004" /></g></g></g></g><g
       id="g34"><g
         clip-path="url(#clipPath40)"
         id="g36"><g
           transform="translate(75.5547,482.3613)"
           id="g42"><path
             id="path44"
             style="fill:#1f3560;fill-opacity:1;fill-rule:nonzero;stroke:none"
             d="m 0,0 c 0.23,24.735 20.225,44.729 44.959,44.96 h 207.832 c 25.055,0.704 45.937,-19.037 46.64,-44.092 0.008,-0.289 0.014,-0.578 0.016,-0.868 0.01,-25.064 -20.301,-45.392 -45.365,-45.401 -0.431,0 -0.861,0.005 -1.291,0.018 H 44.959 C 20.061,-45.151 -0.001,-24.9 0,0" /></g><g
           transform="translate(75.5547,616.3916)"
           id="g46"><path
             id="path48"
             style="fill:#1f3560;fill-opacity:1;fill-rule:nonzero;stroke:none"
             d="m 0,0 c -0.001,24.9 20.061,45.151 44.959,45.384 h 207.832 c 25.055,0.702 45.936,-19.039 46.638,-44.093 0.012,-0.431 0.018,-0.861 0.018,-1.291 -0.224,-25.063 -20.724,-45.2 -45.788,-44.976 -0.289,0.003 -0.578,0.009 -0.868,0.017 H 44.959 C 20.225,-44.729 0.23,-24.734 0,0" /></g><g
           transform="translate(123.0591,646.9302)"
           id="g50"><path
             id="path52"
             style="fill:#76cae7;fill-opacity:1;fill-rule:nonzero;stroke:none"
             d="m 0,0 c 16.866,0 30.539,-13.672 30.539,-30.539 0,-16.865 -13.673,-30.538 -30.539,-30.538 -16.866,0 -30.539,13.673 -30.539,30.538 C -30.539,-13.672 -16.866,0 0,0" /></g><g
           transform="translate(123.0591,512.8999)"
           id="g54"><path
             id="path56"
             style="fill:#76cae7;fill-opacity:1;fill-rule:nonzero;stroke:none"
             d="m 0,0 c 16.866,0 30.539,-13.672 30.539,-30.539 0,-16.865 -13.673,-30.538 -30.539,-30.538 -16.866,0 -30.539,13.673 -30.539,30.538 C -30.539,-13.672 -16.866,0 0,0" /></g></g></g><g
       id="g58"><g
         id="g60"><g
           id="g66"><g
             id="g68"><path
               id="path84"
               style="fill:url(#linearGradient82);stroke:none"
               d="M 427.595,465.82 C 349.997,467.677 279.648,420.438 251.999,347.908 v 0 C 168.702,337.878 105.244,268.471 102.7,184.612 v 0 C 106.38,89.816 186.035,15.852 280.841,19.193 v 0 h 15.694 290.54 7.21 c 77.113,1.345 139.433,63.289 141.241,140.393 v 0 C 733.249,229.141 681.07,286.878 612.1,296.161 v 0 c -4.932,95.403 -83.804,169.745 -178.652,169.753 v 0 c -1.95,0.001 -3.89,-0.031 -5.853,-0.094" /></g></g></g></g><g
       id="g86"><g
         clip-path="url(#clipPath92)"
         id="g88"><g
           transform="translate(448.8037,157.4658)"
           id="g94"><path
             id="path96"
             style="fill:#f2f2f2;fill-opacity:1;fill-rule:nonzero;stroke:none"
             d="m 0,0 c -7.743,-9.831 -19.731,-15.353 -32.235,-14.846 -12.447,-0.339 -24.291,5.347 -31.812,15.27 -8.882,12.273 -13.093,27.313 -11.875,42.415 -1.252,15.169 3.126,30.268 12.3,42.414 7.65,10.275 19.856,16.141 32.659,15.693 C -18.507,101.422 -6.67,95.504 0.424,85.253 9.174,72.916 13.371,57.925 12.3,42.839 13.618,27.531 9.238,12.276 0,0 m 39.445,-10.604 c 9.566,16.158 14.414,34.67 13.997,53.443 0.574,16.479 -3.077,32.832 -10.603,47.504 -6.494,13.087 -16.665,23.995 -29.267,31.386 -13.622,7.903 -29.226,11.731 -44.959,11.029 -14.916,-0.664 -29.458,-4.881 -42.415,-12.301 -13.258,-7.668 -24.011,-19.012 -30.963,-32.659 -7.562,-14.994 -11.485,-31.56 -11.451,-48.353 -0.246,-15.448 3.246,-30.727 10.179,-44.535 6.57,-12.898 16.544,-23.753 28.842,-31.387 12.804,-7.773 27.438,-12.017 42.415,-12.3 L 1.272,-91.191 H 52.17 L 1.696,-44.535 c 16.048,6.731 29.351,18.688 37.749,33.931 m -218.859,67.015 c -7.767,3.394 -15.043,7.817 -21.631,13.149 -3.457,3.653 -5.292,8.547 -5.09,13.573 -0.265,5.064 2.151,9.896 6.362,12.723 5.188,3.67 11.47,5.465 17.814,5.09 15.091,0.555 29.961,-3.758 42.415,-12.3 v 36.477 c -13.655,4.597 -28.013,6.75 -42.415,6.362 -16.566,0.824 -32.905,-4.123 -46.232,-13.997 -11.391,-9.164 -17.828,-23.136 -17.39,-37.749 1.406,-23.608 17.285,-43.88 39.87,-50.897 9.302,-3.842 18.014,-8.983 25.873,-15.27 4.013,-3.368 6.34,-8.333 6.362,-13.572 0.265,-5.065 -2.151,-9.897 -6.362,-12.725 -5.661,-3.678 -12.346,-5.462 -19.087,-5.089 -16.936,0.127 -33.236,6.465 -45.808,17.814 v -39.021 c 13.583,-6.67 28.558,-10.014 43.688,-9.756 17.106,-1.306 34.185,2.852 48.776,11.876 12.129,9.025 18.967,23.497 18.238,38.597 0.412,10.892 -3.385,21.524 -10.603,29.691 -9.651,10.754 -21.516,19.291 -34.78,25.024 M 121.729,-13.573 V 128.94 H 82.284 V -45.809 H 186.2 v 32.236 z" /></g></g></g></g></svg>