<?xml version="1.0" encoding="UTF-8" standalone="no"?>
<svg
   xmlns:dc="http://purl.org/dc/elements/1.1/"
   xmlns:cc="http://creativecommons.org/ns#"
   xmlns:rdf="http://www.w3.org/1999/02/22-rdf-syntax-ns#"
   xmlns:svg="http://www.w3.org/2000/svg"
   xmlns="http://www.w3.org/2000/svg"
   viewBox="0 0 408.79999 408.28"
   height="408.28"
   width="408.79999"
   xml:space="preserve"
   id="svg2"
   version="1.1"><metadata
     id="metadata8"><rdf:RDF><cc:Work
         rdf:about=""><dc:format>image/svg+xml</dc:format><dc:type
           rdf:resource="http://purl.org/dc/dcmitype/StillImage" /></cc:Work></rdf:RDF></metadata><defs
     id="defs6" /><g
     transform="matrix(1.3333333,0,0,-1.3333333,0,408.28)"
     id="g10"><g
       transform="scale(0.1)"
       id="g12"><path
         id="path14"
         style="fill:#2a7247;fill-opacity:1;fill-rule:evenodd;stroke:none"
         d="M 2950,487.332 H 1819.57 l -1.85,206.887 H 2090 v 240.89 h -274.41 l -1.27,142.441 H 2090 v 240.89 h -277.83 l -1.26,142.44 H 2090 v 240.89 h -280 v 142.44 h 280 v 240.89 h -280 v 142.44 h 280 v 240.89 H 1810 V 2687.3 H 2950 Z M 2932.47,2800.66 H 1823.32 v 261.46 L 0,2780.66 V 313.992 L 1823.32,0 v 387.332 h 1109.15 c 73.74,0 133.51,53.727 133.51,120 V 2680.66 c 0,66.27 -59.77,120 -133.51,120" /><path
         id="path16"
         style="fill:#2a7247;fill-opacity:1;fill-rule:evenodd;stroke:none"
         d="m 2243.33,2227.54 h 473.33 v 240.89 h -473.33 v -240.89" /><path
         id="path18"
         style="fill:#2a7247;fill-opacity:1;fill-rule:evenodd;stroke:none"
         d="m 2243.33,1844.21 h 473.33 v 240.89 h -473.33 v -240.89" /><path
         id="path20"
         style="fill:#2a7247;fill-opacity:1;fill-rule:evenodd;stroke:none"
         d="m 2243.33,1460.88 h 473.33 v 240.89 h -473.33 v -240.89" /><path
         id="path22"
         style="fill:#2a7247;fill-opacity:1;fill-rule:evenodd;stroke:none"
         d="m 2243.33,1077.55 h 473.33 v 240.89 h -473.33 v -240.89" /><path
         id="path24"
         style="fill:#2a7247;fill-opacity:1;fill-rule:evenodd;stroke:none"
         d="m 2243.33,694.219 h 473.33 v 240.89 h -473.33 v -240.89" /><path
         id="path26"
         style="fill:#ffffff;fill-opacity:1;fill-rule:evenodd;stroke:none"
         d="m 476.023,2114.41 234.973,13.42 147.695,-406.16 174.549,422.95 234.97,13.43 -285.319,-576.64 285.319,-578.08 -248.4,16.79 -167.83,440.64 -167.839,-423.85 -228.25,20.13 265.172,510.62 -245.04,546.75" /></g></g></svg>