<?xml version="1.0" standalone="no"?>
<!DOCTYPE svg PUBLIC "-//W3C//DTD SVG 20010904//EN"
 "http://www.w3.org/TR/2001/REC-SVG-20010904/DTD/svg10.dtd">
<svg version="1.0" xmlns="http://www.w3.org/2000/svg"
 width="1200.000000pt" height="1600.000000pt" viewBox="0 0 1200.000000 1600.000000"
 preserveAspectRatio="xMidYMid meet">

<g transform="translate(0.000000,1600.000000) scale(0.100000,-0.100000)"
fill="#000000" stroke="none">
<path d="M8580 9545 l0 -4745 685 0 685 0 0 4745 0 4745 -685 0 -685 0 0
-4745z"/>
<path d="M4252 12118 l3 -1423 688 -3 687 -2 0 1425 0 1425 -690 0 -690 0 2
-1422z"/>
<path d="M2050 6455 l0 -4745 685 0 685 0 0 4745 0 4745 -685 0 -685 0 0
-4745z"/>
<path d="M6420 9770 l0 -1430 685 0 685 0 0 1430 0 1430 -685 0 -685 0 0
-1430z"/>
<path d="M4250 6255 l0 -1425 690 0 690 0 0 1425 0 1425 -690 0 -690 0 0
-1425z"/>
<path d="M6420 6835 l0 -675 685 0 685 0 0 675 0 675 -685 0 -685 0 0 -675z"/>
<path d="M6420 3900 l0 -1430 685 0 685 0 0 1430 0 1430 -685 0 -685 0 0
-1430z"/>
</g>
</svg>
