<svg id="svg" version="1.1" xmlns="http://www.w3.org/2000/svg" xmlns:xlink="http://www.w3.org/1999/xlink" width="400" height="400" viewBox="0, 0, 400,400"><g id="svgg"><path id="path0" d="M142.818 97.989 C 142.518 98.174,142.049 98.240,141.777 98.136 C 141.504 98.031,141.162 98.138,141.017 98.373 C 140.872 98.608,140.303 98.800,139.753 98.800 C 139.203 98.800,138.852 98.961,138.974 99.158 C 139.096 99.355,138.917 99.623,138.577 99.754 C 138.227 99.888,138.063 99.821,138.200 99.600 C 138.337 99.379,138.173 99.312,137.823 99.446 C 137.483 99.577,137.321 99.873,137.464 100.104 C 137.626 100.366,137.528 100.403,137.201 100.201 C 136.871 99.996,136.474 100.157,136.122 100.639 C 135.816 101.058,135.438 101.400,135.283 101.400 C 135.127 101.400,135.045 101.535,135.100 101.700 C 135.155 101.865,135.061 101.955,134.891 101.900 C 134.383 101.735,130.743 105.584,131.005 106.008 C 131.138 106.224,131.061 106.400,130.834 106.400 C 130.359 106.400,129.020 108.797,129.490 108.806 C 129.660 108.809,129.581 108.952,129.313 109.122 C 129.045 109.292,128.780 110.023,128.725 110.746 C 128.670 111.469,128.492 112.143,128.330 112.243 C 128.168 112.344,128.143 112.708,128.276 113.053 C 128.408 113.398,128.265 113.840,127.958 114.034 C 127.491 114.330,127.498 114.390,128.000 114.400 C 128.353 114.407,128.435 114.533,128.200 114.706 C 127.937 114.899,127.871 123.555,128.007 140.000 C 128.122 153.750,128.257 163.101,128.307 160.780 C 128.358 158.459,128.569 156.389,128.776 156.180 C 128.983 155.971,129.220 154.900,129.304 153.800 C 129.436 152.057,129.465 152.153,129.528 154.549 C 129.591 156.943,129.678 157.234,130.200 156.800 C 130.709 156.378,130.804 156.476,130.828 157.451 C 130.853 158.454,130.900 158.498,131.200 157.800 C 131.468 157.177,131.563 157.397,131.632 158.800 C 131.693 160.045,131.771 160.261,131.887 159.500 L 132.053 158.400 199.383 158.400 L 266.713 158.400 266.925 155.300 C 267.042 153.595,267.344 143.793,267.596 133.518 C 268.168 110.266,268.023 109.426,262.613 104.481 C 258.287 100.528,259.050 100.636,233.965 100.403 L 212.130 100.200 210.565 99.143 L 209.000 98.086 176.182 97.869 C 158.131 97.750,143.118 97.804,142.818 97.989 M60.493 198.605 C 59.147 199.184,59.090 199.200,58.376 199.200 C 58.143 199.200,58.071 199.392,58.217 199.627 C 58.362 199.861,58.237 200.020,57.940 199.979 C 56.849 199.830,56.360 200.011,56.638 200.462 C 56.827 200.767,56.746 200.814,56.401 200.601 C 56.072 200.397,55.679 200.551,55.339 201.015 C 55.043 201.421,54.800 201.592,54.800 201.395 C 54.800 201.199,54.087 201.733,53.217 202.584 C 52.346 203.434,51.743 204.309,51.878 204.527 C 52.013 204.745,51.930 204.804,51.692 204.657 C 51.168 204.333,49.643 206.400,49.890 207.100 C 49.987 207.375,49.783 207.709,49.436 207.842 C 49.089 207.975,48.904 208.245,49.026 208.442 C 49.148 208.639,49.093 208.800,48.904 208.800 C 48.083 208.800,46.914 214.831,47.121 218.000 C 47.171 218.770,47.352 237.580,47.522 259.800 C 47.692 282.020,47.869 296.116,47.915 291.124 C 48.000 282.071,48.470 279.176,49.058 284.089 C 49.315 286.232,49.399 286.424,49.632 285.400 C 49.856 284.417,49.921 284.597,49.993 286.400 C 50.089 288.826,50.685 291.390,50.760 289.700 L 50.800 288.800 118.328 288.800 L 185.856 288.800 186.322 285.300 C 187.139 279.162,188.524 217.619,187.933 213.720 C 186.896 206.877,181.215 201.134,174.387 200.026 C 172.819 199.771,163.539 199.605,150.831 199.603 C 131.425 199.600,129.805 199.548,129.089 198.900 C 128.021 197.933,62.706 197.652,60.493 198.605 " stroke="none" fill="#f7e078" fill-rule="evenodd"></path><path id="path1" d="M216.200 2.000 C 215.802 2.440,215.665 2.800,215.895 2.800 C 216.126 2.800,216.422 2.519,216.554 2.175 C 216.689 1.825,216.999 1.676,217.259 1.836 C 217.548 2.015,217.616 1.949,217.438 1.662 C 217.066 1.059,217.047 1.064,216.200 2.000 M347.050 3.500 C 347.682 4.105,348.263 4.455,348.341 4.277 C 348.550 3.799,347.169 2.400,346.488 2.400 C 346.106 2.400,346.304 2.787,347.050 3.500 M213.230 4.964 C 212.909 5.350,212.894 5.611,213.181 5.788 C 213.411 5.931,213.614 5.992,213.631 5.924 C 214.019 4.355,213.924 4.128,213.230 4.964 M211.831 7.140 C 211.372 8.028,211.327 8.431,211.663 8.639 C 211.948 8.815,212.015 8.747,211.838 8.462 C 211.681 8.208,211.773 8.000,212.043 8.000 C 212.313 8.000,212.415 7.882,212.270 7.737 C 212.125 7.592,212.211 7.228,212.460 6.927 C 212.710 6.627,212.812 6.278,212.686 6.153 C 212.561 6.028,212.176 6.472,211.831 7.140 M352.747 15.100 C 352.666 15.485,352.690 93.110,352.801 187.600 L 353.001 359.400 353.101 186.900 C 353.155 92.025,353.131 14.400,353.047 14.400 C 352.962 14.400,352.827 14.715,352.747 15.100 M210.422 99.017 C 212.366 100.452,211.304 100.387,234.600 100.499 C 258.976 100.616,258.275 100.517,262.613 104.481 C 268.023 109.426,268.168 110.266,267.596 133.518 C 267.344 143.793,267.042 153.595,266.925 155.300 L 266.713 158.400 199.383 158.400 L 132.053 158.400 131.887 159.500 C 131.771 160.261,131.693 160.045,131.632 158.800 C 131.563 157.397,131.468 157.177,131.200 157.800 C 130.900 158.498,130.853 158.454,130.828 157.451 C 130.804 156.476,130.709 156.378,130.200 156.800 C 129.678 157.234,129.591 156.943,129.528 154.549 C 129.465 152.160,129.436 152.061,129.302 153.790 C 129.218 154.884,128.953 156.016,128.713 156.305 C 128.081 157.066,127.628 198.401,128.251 198.400 C 128.499 198.400,128.926 198.670,129.200 199.000 C 129.631 199.519,132.527 199.600,150.749 199.603 C 163.514 199.605,172.818 199.771,174.387 200.026 C 181.215 201.134,186.896 206.877,187.933 213.720 C 188.524 217.619,187.139 279.162,186.322 285.300 L 185.856 288.800 118.328 288.800 L 50.800 288.800 50.760 289.700 C 50.685 291.390,50.089 288.826,49.993 286.400 C 49.921 284.597,49.856 284.417,49.632 285.400 C 49.400 286.419,49.313 286.215,49.053 284.046 C 48.481 279.255,48.017 282.135,47.900 291.212 C 47.836 296.155,47.722 283.640,47.647 263.400 C 47.572 243.160,47.380 224.890,47.220 222.800 C 47.060 220.710,46.900 256.359,46.865 302.020 C 46.815 366.130,46.909 385.149,47.280 385.520 C 47.544 385.784,47.589 386.003,47.380 386.006 C 47.171 386.009,47.270 386.187,47.600 386.400 C 47.930 386.613,48.006 386.791,47.769 386.794 C 47.519 386.797,47.412 387.302,47.515 388.000 C 47.612 388.660,47.870 389.200,48.088 389.200 C 48.307 389.200,48.390 389.449,48.273 389.754 C 48.156 390.059,48.327 390.689,48.653 391.154 C 48.979 391.619,49.111 392.000,48.946 392.000 C 48.782 392.000,48.996 392.283,49.424 392.630 C 49.851 392.976,49.940 393.123,49.621 392.957 C 49.283 392.781,49.418 393.183,49.949 393.928 C 50.447 394.627,51.033 395.200,51.251 395.200 C 51.469 395.200,51.552 395.354,51.436 395.542 C 50.989 396.264,54.229 398.367,55.330 398.069 C 55.511 398.020,55.544 398.168,55.402 398.397 C 55.261 398.626,54.949 398.692,54.711 398.545 C 54.449 398.383,54.392 398.463,54.566 398.745 C 54.725 399.002,55.023 399.109,55.228 398.983 C 55.432 398.856,55.600 398.933,55.600 399.153 C 55.600 399.374,55.960 399.485,56.400 399.400 C 56.840 399.315,57.200 399.416,57.200 399.623 C 57.200 399.857,81.823 400.000,122.335 400.000 L 187.470 400.000 187.739 378.500 C 188.675 303.595,189.245 276.066,190.052 266.700 L 190.526 261.200 228.639 261.200 L 266.751 261.200 266.981 259.500 C 267.656 254.501,269.093 140.881,268.742 120.190 L 268.600 111.780 267.227 108.993 C 265.519 105.526,262.840 102.864,259.307 101.124 L 256.619 99.800 234.151 99.600 C 213.482 99.416,211.621 99.344,210.910 98.700 C 210.485 98.315,209.891 98.000,209.591 98.000 C 209.290 98.000,209.665 98.458,210.422 99.017 M132.981 102.849 C 132.039 103.831,131.741 104.323,132.243 104.065 C 132.707 103.827,133.390 103.169,133.761 102.603 C 134.136 102.032,134.633 101.697,134.879 101.849 C 135.148 102.015,135.211 101.941,135.038 101.662 C 134.658 101.047,134.773 100.980,132.981 102.849 M127.758 121.800 C 127.758 124.880,127.821 126.087,127.897 124.482 C 127.973 122.878,127.973 120.358,127.896 118.882 C 127.819 117.407,127.757 118.720,127.758 121.800 M52.242 203.156 C 51.394 204.041,51.259 204.385,51.667 204.620 C 51.960 204.790,52.062 204.777,51.894 204.592 C 51.726 204.407,52.075 203.748,52.669 203.128 C 53.263 202.507,53.660 202.000,53.550 202.000 C 53.440 202.000,52.851 202.520,52.242 203.156 M46.956 214.571 C 46.835 214.885,46.804 215.560,46.886 216.071 C 46.995 216.754,47.088 216.604,47.237 215.500 C 47.447 213.947,47.336 213.581,46.956 214.571 " stroke="none" fill="#f4d652" fill-rule="evenodd"></path><path id="path2" d="M219.600 0.383 C 219.600 0.598,219.348 0.678,219.040 0.560 C 218.733 0.442,218.360 0.541,218.213 0.779 C 218.065 1.018,217.747 1.091,217.504 0.941 C 217.218 0.764,217.156 0.909,217.327 1.355 C 217.485 1.766,217.431 1.943,217.193 1.795 C 216.974 1.660,216.686 1.831,216.554 2.175 C 216.422 2.519,216.051 2.800,215.729 2.800 C 214.905 2.800,214.030 3.770,213.862 4.869 C 213.784 5.381,213.579 5.710,213.406 5.600 C 213.120 5.418,212.533 6.514,212.477 7.336 C 212.464 7.521,212.128 7.911,211.730 8.202 C 211.331 8.493,210.987 8.972,210.964 9.266 C 210.941 9.560,210.894 10.126,210.861 10.524 C 210.827 10.922,210.620 11.136,210.400 11.000 C 210.180 10.864,210.000 10.928,210.000 11.143 C 210.000 11.358,210.225 11.624,210.500 11.735 C 210.885 11.890,210.879 11.944,210.476 11.968 C 210.188 11.986,210.064 12.180,210.200 12.400 C 210.336 12.620,210.235 12.800,209.975 12.800 C 209.622 12.800,209.629 12.953,210.000 13.400 C 210.371 13.847,210.378 14.000,210.025 14.000 C 209.765 14.000,209.664 14.180,209.800 14.400 C 209.936 14.620,209.857 14.800,209.624 14.800 C 209.328 14.800,209.200 27.269,209.200 56.000 L 209.200 97.200 185.576 97.200 C 169.929 97.200,162.036 97.335,162.200 97.600 C 162.360 97.859,170.827 98.000,186.292 98.000 C 208.440 98.000,210.192 98.050,210.910 98.700 C 211.621 99.344,213.482 99.416,234.151 99.600 L 256.619 99.800 259.307 101.124 C 262.840 102.864,265.519 105.526,267.227 108.993 L 268.600 111.780 268.742 120.190 C 269.093 140.881,267.656 254.501,266.981 259.500 L 266.751 261.200 228.639 261.200 L 190.526 261.200 190.052 266.700 C 189.245 276.066,188.675 303.595,187.739 378.500 L 187.470 400.000 265.549 400.000 C 337.917 400.000,343.708 399.951,344.714 399.329 C 346.331 398.330,349.200 395.508,349.200 394.917 C 349.200 394.633,349.390 394.400,349.622 394.400 C 350.192 394.400,351.841 390.711,352.483 388.000 C 352.909 386.203,352.967 351.902,352.802 200.676 C 352.691 98.858,352.729 15.203,352.887 14.776 C 353.054 14.325,353.002 14.000,352.764 14.000 C 352.538 14.000,352.464 13.820,352.600 13.600 C 352.736 13.380,352.635 13.200,352.375 13.200 C 352.018 13.200,352.014 13.065,352.361 12.647 C 352.715 12.220,352.682 12.040,352.217 11.862 C 351.864 11.726,351.714 11.369,351.855 11.000 C 351.988 10.654,351.777 10.017,351.387 9.585 C 350.941 9.093,350.857 8.800,351.162 8.800 C 351.429 8.800,351.534 8.617,351.396 8.393 C 351.258 8.170,350.979 8.089,350.777 8.214 C 350.575 8.339,350.509 8.180,350.632 7.861 C 350.754 7.542,350.659 7.160,350.421 7.013 C 350.182 6.865,350.091 6.577,350.217 6.372 C 350.344 6.168,350.252 6.000,350.014 6.000 C 349.775 6.000,349.383 5.505,349.142 4.900 C 348.902 4.295,348.630 3.999,348.539 4.241 C 348.442 4.498,347.895 4.247,347.232 3.641 C 346.495 2.969,346.248 2.501,346.536 2.321 C 347.076 1.981,345.189 1.192,344.600 1.511 C 344.380 1.631,344.324 1.590,344.476 1.422 C 344.628 1.253,344.538 0.874,344.276 0.579 C 343.681 -0.090,219.600 -0.286,219.600 0.383 M127.792 162.600 C 127.792 182.180,127.840 190.131,127.900 180.270 C 127.960 170.408,127.959 154.388,127.900 144.670 C 127.840 134.951,127.791 143.020,127.792 162.600 M53.200 397.728 C 53.200 397.845,53.710 398.196,54.333 398.507 C 55.146 398.912,55.467 398.939,55.467 398.603 C 55.467 398.345,55.272 398.125,55.033 398.114 C 54.795 398.104,54.285 397.965,53.900 397.805 C 53.515 397.645,53.200 397.610,53.200 397.728 " stroke="none" fill="#e3aa0e" fill-rule="evenodd"></path></g></svg>